<svg width="91" height="137" viewBox="0 0 91 137" fill="none" xmlns="http://www.w3.org/2000/svg">
<path d="M9.61874 7.20117C9.61874 35.7037 16.0255 64.1306 20.2993 92.1987C22.2693 105.137 22.3897 118.51 24.7234 131.346C24.9025 132.331 25.106 132.478 24.5447 131.703C21.9613 128.136 18.6104 125.066 15.6964 121.782C10.8927 116.369 5.88648 109.681 3.18359 102.924" stroke="#F04E23" stroke-width="5" stroke-linecap="round"/>
<path d="M22.4883 132.687C25.7561 130.058 35.3586 124.555 35.3586 119.414C35.3586 117.333 34.9257 114.743 35.5373 112.756C36.5159 109.575 38.5761 107.382 38.5761 103.729" stroke="#F04E23" stroke-width="5" stroke-linecap="round"/>
<path d="M50.6992 3C53.5552 24.5036 55.6859 46.022 60.5872 67.175C63.2943 78.8583 65.2852 91.9587 65.822 103.948C66.1337 110.909 68.1486 117.856 68.1486 124.629C68.1486 126.702 70.0951 131.32 68.5364 129.282C64.323 123.772 62.6249 118.805 60.5872 112.285C59.3148 108.213 59.5 105.862 56.5157 103.043C54.7957 101.419 51.4759 101.107 50.6992 99.5534" stroke="#F04E23" stroke-width="5" stroke-linecap="round"/>
<path d="M72.8008 134.452C76.5598 123.363 81.8758 113.452 86.5018 103.043C87.602 100.568 85.3435 96.1905 87.9236 94.9004" stroke="#F04E23" stroke-width="5" stroke-linecap="round"/>
</svg>
