<svg width="292" height="108" viewBox="0 0 292 108" fill="none" xmlns="http://www.w3.org/2000/svg">
<path d="M73 3C81.4368 11.4369 85.787 23.2874 90.4636 34.0602C91.6137 36.7096 93.2078 39.3456 93.2078 42.2931" stroke="#F04E23" stroke-width="5" stroke-linecap="round"/>
<path d="M131 6C131.119 16.0971 130.868 30.435 135.491 39.6798" stroke="#F04E23" stroke-width="5" stroke-linecap="round"/>
<path d="M186.981 6C186.554 18.2532 184.233 30.2159 181.617 42.1746C180.934 45.297 180.579 48.0646 178 49.7837" stroke="#F04E23" stroke-width="5" stroke-linecap="round"/>
<path d="M256.434 23C245.727 37.8707 234.38 53.396 225 69.029" stroke="#F04E23" stroke-width="5" stroke-linecap="round"/>
<path d="M61.7609 55.5737C45.8197 49.8764 29.5912 44.5088 15.0348 35.7033C10.6518 33.0519 7.23697 28.6702 3 26.4615" stroke="#F04E23" stroke-width="5" stroke-linecap="round"/>
<path d="M261 105H289.066" stroke="#F04E23" stroke-width="5" stroke-linecap="round"/>
</svg>
