<svg width="269" height="18" viewBox="0 0 269 18" fill="none" xmlns="http://www.w3.org/2000/svg">
<g clip-path="url(#clip0_239_65)">
<path d="M211.872 13.4001C184.149 10.2881 156.395 7.71593 128.577 5.62008C101.426 3.58773 74.1801 1.55538 46.934 2.44454C31.6279 2.95262 16.3535 4.44513 1.33322 7.46189C-0.730879 7.87471 -0.286303 11.3043 1.84131 11.1773C36.3594 9.08141 70.8775 6.98556 105.459 5.55656C139.977 4.12757 174.559 3.36544 209.109 3.9688C228.48 4.28635 247.85 5.04848 267.189 6.35045C269.603 6.50923 269.603 2.73033 267.189 2.57156C232.703 0.285169 198.153 -0.318184 163.603 0.126392C129.022 0.602723 94.4718 2.09523 59.9537 4.00055C40.5829 5.04848 21.2121 6.22343 1.84131 7.39838C2.00009 8.63684 2.19062 9.8753 2.3494 11.1138C28.9604 5.7471 56.2383 5.39779 83.2622 6.54098C110.731 7.71593 138.199 9.93881 165.572 12.4475C181.037 13.8447 196.47 15.4325 211.872 17.1473C214.285 17.4331 214.285 13.6542 211.872 13.4001Z" fill="#F04E23"/>
</g>
<defs>
<clipPath id="clip0_239_65">
<rect width="269" height="17.1797" fill="white"/>
</clipPath>
</defs>
</svg>
