<svg width="566" height="193" viewBox="0 0 566 193" fill="none" xmlns="http://www.w3.org/2000/svg">
<path d="M16.9764 38.5341C29.7436 47.8193 47.5527 56.4406 59.0271 67.2775C61.6145 69.7212 62.0321 73.4237 65.0153 75.661C68.4846 78.263 75.3196 83.3617 76.8587 86.4398" stroke="#F04E23" stroke-width="10" stroke-linecap="round"/>
<path d="M206.204 5C206.528 19.2296 209.848 38.0828 215.785 51.442C217.124 54.4527 221.354 55.8543 222.705 58.894C224.529 62.9985 224.626 70.0212 225.367 74.4634" stroke="#F04E23" stroke-width="10" stroke-linecap="round"/>
<path d="M467.291 26.5576C456.798 43.9115 439.344 57.2022 438.547 78.7217C438.233 87.2164 433.757 94.9674 433.757 103.207" stroke="#F04E23" stroke-width="10" stroke-linecap="round"/>
<path d="M495 155.75L560.536 116" stroke="#F04E23" stroke-width="10" stroke-linecap="round"/>
<path d="M5 184.647C11.8221 184.647 58.6373 179.343 62.4869 187.042" stroke="#F04E23" stroke-width="10" stroke-linecap="round"/>
</svg>
