<svg width="104" height="27" viewBox="0 0 104 27" fill="none" xmlns="http://www.w3.org/2000/svg">
<path d="M16.9349 15.8646H22.6638C21.5935 19.9567 17.8792 22.9156 13.4723 22.9156C8.24709 22.9156 4.02911 18.6976 4.02911 13.4723C4.02911 8.24709 8.31004 4.02911 13.4723 4.02911C15.0462 4.02911 16.5571 4.40684 17.8792 5.09935L21.8453 2.89592C19.516 1.07023 16.6201 0 13.4723 0C6.04367 0 0 6.04367 0 13.4723C0 20.901 6.04367 26.9447 13.4723 26.9447C20.0826 26.9447 25.6226 22.1601 26.7558 15.8646H29.6517V11.8355H16.9349V15.8646Z" fill="#002869"/>
<path d="M43.5636 5.16211C37.5829 5.16211 32.6724 10.0096 32.6724 16.0533C32.6724 22.097 37.5199 26.9445 43.5636 26.9445C46.1447 26.9445 48.4741 26.0631 50.2998 24.5522L46.2706 22.3488C45.4522 22.7265 44.5079 22.9154 43.5006 22.9154C40.227 22.9154 37.457 20.5861 36.8274 17.5013H54.3289C54.3918 16.9976 54.4548 16.5569 54.4548 16.0533C54.4548 15.1719 54.3289 14.2906 54.14 13.4722C53.0068 8.75054 48.6629 5.16211 43.5636 5.16211ZM37.2051 13.4722C38.2124 10.954 40.6677 9.19122 43.5636 9.19122C46.4595 9.19122 48.9148 10.954 49.922 13.4722H37.2051Z" fill="#F04E23"/>
<path d="M93.1088 5.16211C87.1281 5.16211 82.2176 10.0096 82.2176 16.0533C82.2176 22.097 87.0651 26.9445 93.1088 26.9445C99.0895 26.9445 104 22.097 104 16.0533C104 10.0096 99.0895 5.16211 93.1088 5.16211ZM93.1088 22.9154C89.3315 22.9154 86.2467 19.8306 86.2467 16.0533C86.2467 12.276 89.3315 9.19122 93.1088 9.19122C96.8861 9.19122 99.9709 12.276 99.9709 16.0533C99.9709 19.8306 96.8861 22.9154 93.1088 22.9154Z" fill="#F04E23"/>
<path d="M75.1668 7.61735C73.2781 6.10643 70.8858 5.16211 68.3047 5.16211C65.7235 5.16211 63.3312 6.10643 61.4426 7.61735C58.9874 9.63191 57.4135 12.6537 57.4135 16.0533V26.9445H61.4426V16.0533C61.4426 12.276 64.5274 9.19122 68.3047 9.19122C72.082 9.19122 75.1668 12.276 75.1668 16.0533V26.9445H79.1959V16.0533C79.1959 12.6537 77.622 9.63191 75.1668 7.61735Z" fill="#F04E23"/>
</svg>
